<svg xmlns="http://www.w3.org/2000/svg" width="32" height="32" fill="currentColor" viewBox="0 0 32 32">
  <path fill-rule="evenodd" d="m31.988 10.946-.011-.06c-.007-.039-.014-.078-.024-.115-.006-.023-.015-.045-.022-.067a1.687 1.687 0 0 0-.035-.1.685.685 0 0 0-.031-.067.71.71 0 0 0-.047-.091c-.012-.022-.026-.043-.039-.064a.964.964 0 0 0-.105-.143 1.226 1.226 0 0 0-.069-.075c-.018-.018-.035-.037-.054-.053a2.28 2.28 0 0 0-.078-.066l-.062-.047-.023-.017L16.763.231a1.376 1.376 0 0 0-1.526 0L.613 9.981l-.023.017a1.235 1.235 0 0 0-.14.113c-.019.016-.037.035-.055.053a.96.96 0 0 0-.068.075.883.883 0 0 0-.105.143 1.378 1.378 0 0 0-.087.155c-.01.021-.021.044-.03.067a1.192 1.192 0 0 0-.036.1c-.007.022-.015.044-.021.067-.01.037-.017.076-.024.115-.004.02-.009.039-.011.06a1.311 1.311 0 0 0-.013.179v9.75c0 .06.005.12.013.18.002.019.007.039.011.059.007.039.014.077.024.115.006.023.014.045.021.067.011.033.022.067.036.101l.03.066c.015.031.03.061.047.092l.04.063a1.216 1.216 0 0 0 .173.217.93.93 0 0 0 .133.12c.02.016.04.032.062.047l.023.017 14.624 9.75a1.374 1.374 0 0 0 1.526 0l14.625-9.75.023-.017.062-.047a2.28 2.28 0 0 0 .078-.066c.019-.017.036-.035.054-.054a1.208 1.208 0 0 0 .174-.217l.039-.063a1 1 0 0 0 .047-.092.98.98 0 0 0 .031-.066c.013-.034.024-.068.035-.101.007-.022.016-.044.022-.067.01-.038.017-.076.024-.115l.011-.059c.008-.06.012-.12.012-.18v-9.75c0-.061-.004-.121-.012-.179ZM17.375 3.945l10.774 7.182-4.812 3.219-5.962-3.988V3.945Zm-2.75 0v6.413l-5.961 3.988-4.813-3.219 10.774-7.182ZM2.75 13.699 6.191 16 2.75 18.301v-4.602Zm11.875 14.356L3.851 20.873l4.813-3.218 5.961 3.987v6.413ZM16 19.253 11.137 16 16 12.747 20.864 16 16 19.253Zm1.375 8.802v-6.413l5.962-3.987 4.812 3.218-10.774 7.182Zm11.875-9.754L25.81 16l3.44-2.301v4.602Z" clip-rule="evenodd"/>
</svg>
