<svg xmlns="http://www.w3.org/2000/svg" width="34" height="34" fill="currentColor" viewBox="0 0 34 34">
  <path d="M15.106.118C7.276.968.978 7.267.126 14.927c-1.02 8.51 4.256 15.83 11.746 18.213v-3.915s-.681.17-1.532.17c-2.383 0-3.405-2.042-3.575-3.234-.17-.68-.51-1.191-1.021-1.702-.511-.17-.681-.17-.681-.34 0-.34.51-.34.68-.34 1.022 0 1.873 1.19 2.214 1.701.85 1.362 1.872 1.703 2.383 1.703a3.4 3.4 0 0 0 1.532-.34c.17-1.192.68-2.384 1.702-3.065-3.915-.85-6.809-3.064-6.809-6.808 0-1.873.851-3.745 2.043-5.107-.17-.34-.34-1.192-.34-2.383 0-.681 0-1.702.51-2.724 0 0 2.383 0 4.766 2.213.851-.34 2.043-.51 3.234-.51 1.192 0 2.383.17 3.404.51 2.213-2.213 4.767-2.213 4.767-2.213.34 1.022.34 2.043.34 2.724 0 1.362-.17 2.043-.34 2.383 1.191 1.362 2.042 3.064 2.042 5.107 0 3.744-2.893 5.957-6.808 6.808 1.02.851 1.702 2.383 1.702 3.915v5.617C29.064 31.098 34 24.63 34 17.14 34 6.927 25.319-1.074 15.106.118Z"/>
</svg>
