<svg xmlns="http://www.w3.org/2000/svg" width="34" height="32" fill="currentColor" viewBox="0 0 34 32">
  <path d="M17 31.613.53 19.393a1.414 1.414 0 0 1-.462-.654l-.002-.01a1.22 1.22 0 0 1 .003-.802l-.003.008 1.927-5.844L17 31.613ZM6.972.466l3.786 11.622H1.992L5.71.466a.68.68 0 0 1 .646-.465h.02L6.407 0c.28 0 .511.199.563.462v.004h.001Zm3.786 11.622h12.486L17 31.613l-6.242-19.525Zm23.176 5.843a1.22 1.22 0 0 1-.003.802l.003-.009c-.09.27-.252.495-.462.663l-.003.002L17 31.613l15.008-19.525 1.926 5.843ZM28.29.466l3.718 11.622h-8.764L27.028.466a.575.575 0 0 1 .6-.465h-.002.018c.3 0 .552.193.645.46v.005Z"/>
</svg>
